# xmcd CD database file
#
# Track frame offsets:
#	150
#	18387
#	31567
#	53187
#	68085
#	101332
#	121965
#	146195
#	164592
#	190877
#
# Disc length: 2731 seconds
#
# Revision: 4
# Processed by: cddbd v1.5.2PL0 Copyright (c) Steve Scherf et al.
# Submitted via: CDex 1.51
#
DISCID=830aa90a
DTITLE=Tampa Red - Dont't tampa with the blues
DYEAR=1900
DGENRE=Blues
TTITLE0=I'm a stranger here
TTITLE1=Let me play with your poodle
TTITLE2=Goodbye Baby
TTITLE3=Things about coming my way
TTITLE4=Kansas City blues
TTITLE5=You better do right
TTITLE6=Louise blues
TTITLE7=It's tight like that
TTITLE8=You got to love her with a feeling
TTITLE9=Boogie Woogie Women
EXTD=
EXTT0=
EXTT1=
EXTT2=
EXTT3=
EXTT4=
EXTT5=
EXTT6=
EXTT7=
EXTT8=
EXTT9=
PLAYORDER=
